/* XPM */
static char *bitcoin64[] = {
/* columns rows colors chars-per-pixel */
"64 64 157 2 ",
"   c #F95D12",
".  c #F96117",
"X  c #F9631A",
"o  c #F96720",
"O  c #F96A23",
"+  c #F96F2B",
"@  c #F9712E",
"#  c #FA7634",
"$  c #FA7B3C",
"%  c #CA9601",
"&  c #CB9C01",
"*  c #CC9B0D",
"=  c #D19C01",
"-  c #D99D00",
";  c #CE9E17",
":  c #CDA001",
">  c #CDA10B",
",  c #D5A500",
"<  c #DAA200",
"1  c #DCAB00",
"2  c #D1A40E",
"3  c #CEA316",
"4  c #CEA31D",
"5  c #D5AB1E",
"6  c #E1A501",
"7  c #E2AE02",
"8  c #EAAC00",
"9  c #EFAF0A",
"0  c #F0AC00",
"q  c #E3B000",
"w  c #ECB300",
"e  c #EEBA02",
"r  c #E4B209",
"t  c #F3B601",
"y  c #FFB701",
"u  c #F5BC00",
"i  c #FFBC01",
"p  c #FDBF0B",
"a  c #FDBC15",
"s  c #D0A527",
"d  c #DCA927",
"f  c #D0A72B",
"g  c #D2AB29",
"h  c #D2A736",
"j  c #D2AA35",
"k  c #D3B03A",
"l  c #F6C101",
"z  c #FFC501",
"x  c #FECA01",
"c  c #FEC00F",
"v  c #FDCB0B",
"b  c #FDC415",
"n  c #FCCD17",
"m  c #FDC31D",
"M  c #FCCE18",
"N  c #FDC421",
"B  c #FCCE20",
"V  c #FCC62B",
"C  c #F7CB28",
"Z  c #FCC82E",
"A  c #FCC332",
"S  c #FCCB35",
"D  c #FBCE39",
"F  c #FBD233",
"G  c #F9D43F",
"H  c #FA8245",
"J  c #FA874C",
"K  c #FA8C54",
"L  c #FA8F59",
"P  c #FB925E",
"I  c #D6AD45",
"U  c #D5B44B",
"Y  c #D5AF52",
"T  c #D6B152",
"R  c #D7BA5A",
"E  c #D9BB5E",
"W  c #FB9562",
"Q  c #FB9967",
"!  c #FB9C6C",
"~  c #FB9F70",
"^  c #D9BD61",
"/  c #DBBE6F",
"(  c #FBA274",
")  c #FCA67A",
"_  c #FBC740",
"`  c #F0CA47",
"'  c #FACE4A",
"]  c #FAD346",
"[  c #F9D54A",
"{  c #F9CE58",
"}  c #F9D652",
"|  c #F8D55B",
" . c #DBC16B",
".. c #DDC67A",
"X. c #DFC87E",
"o. c #E2C667",
"O. c #EECD60",
"+. c #F1C961",
"@. c #F8D163",
"#. c #F8D964",
"$. c #F8D26A",
"%. c #F7DB6D",
"&. c #F8DA6C",
"*. c #F3D46B",
"=. c #E0C97C",
"-. c #F7D574",
";. c #F7DA75",
":. c #F7DB7A",
">. c #FCAE85",
",. c #FCB28C",
"<. c #FCB691",
"1. c #FCB996",
"2. c #FCBD9B",
"3. c #DEC682",
"4. c #DEC980",
"5. c #E0CB8D",
"6. c #E3D18D",
"7. c #F6DC86",
"8. c #F6DB8C",
"9. c #F5E19F",
"0. c #FCC3A5",
"q. c #FDC7AA",
"w. c #E4D4A2",
"e. c #E8D8AE",
"r. c #FDCCB3",
"t. c #E7DBB3",
"y. c #E9DEBA",
"u. c #FDD3BB",
"i. c #F5E3A0",
"p. c #F4E3AD",
"a. c #F4E4B6",
"s. c #F5E8B6",
"d. c #FDD9C6",
"f. c #FDDCCB",
"g. c #EAE1C4",
"h. c #ECE3CA",
"j. c #F3E6C2",
"k. c #F3E8C5",
"l. c #F3E7C9",
"z. c #EEE7D7",
"x. c #EFE9D7",
"c. c #EFEADA",
"v. c #FEE4D5",
"b. c #F4EDD5",
"n. c #FEE6D8",
"m. c #F3EDDC",
"M. c #FEE9DD",
"N. c #F2EEE3",
"B. c #FEEDE3",
"V. c #F5F1E5",
"C. c #F5F2EB",
"Z. c #FEF3EC",
"A. c #F7F5F1",
"S. c #F9F6F2",
"D. c #FCF9F6",
"F. c #FFFFFF",
"G. c None",
/* pixels */
"G.G.G.G.G.G.G.G.G.G.G.G.G.G.G.G.G.G.G.G.G.G.G.G.G.G.G.G.G.G.G.G.G.G.G.G.G.G.G.G.G.G.G.G.G.G.G.G.G.G.G.G.G.G.G.G.G.G.G.G.G.G.G.G.",
"G.G.G.G.G.G.G.G.G.G.G.G.G.G.G.G.G.G.G.G.G.G.G.G.G.G.G.G.G.G.G.G.G.G.G.G.G.G.G.G.G.G.G.G.G.G.G.G.G.G.G.G.G.G.G.G.G.G.G.G.G.G.G.G.",
"G.G.G.G.G.G.G.G.G.G.G.G.G.G.G.G.G.G.G.G.G.G.G.G.G.G.G.G.x x x x x x x x G.G.G.G.G.G.G.G.G.G.G.G.G.G.G.G.G.G.G.G.G.G.G.G.G.G.G.G.",
"G.G.G.G.G.G.G.G.G.G.G.G.G.G.G.G.G.G.G.G.G.G.G.x x x x x x x x x x x x x x x x x x G.G.G.G.G.G.G.G.G.G.G.G.G.G.G.G.G.G.G.G.G.G.G.",
"G.G.G.G.G.G.G.G.G.G.G.G.G.G.G.G.G.G.G.G.x x x x x x x x x x x x x x x x x x x x x x x G.G.G.G.G.G.G.G.G.G.G.G.G.G.G.G.G.G.G.G.G.",
"G.G.G.G.G.G.G.G.G.G.G.G.G.G.G.G.G.G.x x x x x x x x x x x x x x x x x x x x x x x x x x x x G.G.G.G.G.G.G.G.G.G.G.G.G.G.G.G.G.G.",
"G.G.G.G.G.G.G.G.G.G.G.G.G.G.G.G.x x x x x x x x x x x x x x x x x x x x x x x x x x x x x x x G.G.G.G.G.G.G.G.G.G.G.G.G.G.G.G.G.",
"G.G.G.G.G.G.G.G.G.G.G.G.G.G.G.x x x x x x x x x x x x x x x x x x x x x x x x x x x x x x x x x x G.G.G.G.G.G.G.G.G.G.G.G.G.G.G.",
"G.G.G.G.G.G.G.G.G.G.G.G.G.x x x x x x x x x v F } %.:.;.[ n x x x x x v F ;.7.%.[ B x x x x x x x x G.G.G.G.G.G.G.G.G.G.G.G.G.G.",
"G.G.G.G.G.G.G.G.G.G.G.G.x x x x x x x x x C p.c.C.A.A.A.V.j.7.| [ [ #.i.c.A.A.A.V.k.%.v x x x x x x x x G.G.G.G.G.G.G.G.G.G.G.G.",
"G.G.G.G.G.G.G.G.G.G.G.x x x x x x x x l 1 6.A.F.F.F.F.F.F.S.A.C.N.N.C.A.D.F.F.F.F.D.m.] x x x x x x x x x G.G.G.G.G.G.G.G.G.G.G.",
"G.G.G.G.G.G.G.G.G.G.x x x x x x x x x 1 : w.D.F.F.F.F.F.F.F.F.F.F.F.F.F.F.F.F.F.F.F.V.[ x x x x x x x x x z G.G.G.G.G.G.G.G.G.G.",
"G.G.G.G.G.G.G.G.G.x x x x x x x x x z : &  .C.F.F.F.F.F.F.F.F.F.F.F.F.F.F.F.F.F.F.D.s.M x x x x x x x x x z l G.G.G.G.G.G.G.G.G.",
"G.G.G.G.G.G.G.G.x x z x x x x x z x z 1 & 3 y.S.F.F.F.F.F.F.F.F.F.F.F.F.F.F.F.F.F.V.} x x x x x x x x x z z z i G.G.G.G.G.G.G.G.",
"G.G.G.G.G.G.G.x x x x x x x x x x x x e : : U N.D.F.F.F.F.F.F.F.F.F.F.F.F.F.F.F.A.9.v x x x x x x x x x z z z i G.G.G.G.G.G.G.G.",
"G.G.G.G.G.G.G.x v x x z z x x x z x x x 1 & : 4.C.F.F.F.F.F.F.F.F.F.F.F.F.F.F.D.b.F z z z l x z x l x x z z i z z G.G.G.G.G.G.G.",
"G.G.G.G.G.G.x x z x z x x z x x z x x z l , & 3 t.A.F.F.F.F.F.F.F.F.F.F.F.F.F.C.:.z i z z z z z l z i l z i i i i i G.G.G.G.G.G.",
"G.G.G.G.G.z x z x z x z x z z x x z x z x e : & k c.D.F.F.F.F.F.F.F.F.F.F.F.A.a.b i i z z i i i i z z i i i i i i p G.G.G.G.G.G.",
"G.G.G.G.G.v x z x x x z z x z z x x z x x x q : :  .C.C.A.A.A.A.A.A.C.S.C.A.b.D i i i i i i i z i i i i i i i z i i i G.G.G.G.G.",
"G.G.G.G.z z z x z z x x x z x x z x x z z x l , & > U  .^ E ^ E E ^ ^ ^ ^ O.S z z i i i i i i i i i i i i i i i i i i G.G.G.G.G.",
"G.G.G.G.x x z x x x z z x x x z x z z x x z x u 1 5 E  . . . . . . . . .o.*.] v z z i i i i i i i i i i i i i i i i i i G.G.G.G.",
"G.G.G.x z z x z z x x v z z x z z x z z z x z l ` j.C.A.A.A.A.C.A.A.S.C.A.C.N.7.b i i i i i i i i i i i i i i i i i i z G.G.G.G.",
"G.G.G.z v z z z x z z x z x z x x z z z x z e o.c.S.F.F.F.F.F.F.F.F.F.F.F.F.F.C.p.V i i i i i i i i i z i i i i i i i i i G.G.G.",
"G.G.G.x z x z x z z x z x z x z z z z z z r X.C.D.F.F.F.F.F.F.F.F.F.F.F.F.F.F.F.C.j.S i i z i i i i i i i i i i i i i i i G.G.G.",
"G.G.x z z x z x z z x z x z z x z z z z r X.C.D.F.F.F.F.F.F.F.F.F.F.F.F.F.F.F.F.F.A.k.S i i i i i i z i i i i i i i i i i G.G.G.",
"G.G.x z x z x z z x x z z z z z z z z 1 ..C.D.F.F.F.F.F.F.F.F.F.F.F.F.F.F.F.F.F.F.F.S.k.Z i i i i i i i i i i i i i i i i i G.G.",
"G.G.z x x z z x z z z z z z z z z z 7  .C.D.F.F.F.F.F.F.F.F.F.1.P r.F.F.F.F.F.F.F.F.F.A.a.m i i i i i i i i i i i i i i i i G.G.",
"G.G.x z x z z z z z z z z z x z z q U c.S.F.F.F.F.F.F.F.F.F.F.W   <.F.F.F.F.F.F.F.F.F.F.A.9.c i i i i i i i i i i i i z i i G.G.",
"G.G.x z z z z z z z z z z z z z w g h.S.F.F.F.F.F.F.F.F.F.F.B.L   ( d.B.F.F.F.F.F.F.F.F.F.C.:.i i z i i z p i i i i i i i i G.G.",
"G.z z z z z z z z z z z z z z u > w.A.F.F.F.F.F.F.F.F.F.B.>.$ O X X O # ~ Z.F.F.F.F.F.F.F.D.N.' i i i i i i i i i i i i i i G.G.",
"G.z z z z z z z z z z z z z l ,  .C.F.F.F.F.F.F.F.F.F.B.L . . X O O X   J Z.F.F.F.F.F.F.F.F.S.k.N i i i i i i i z i i i i i G.G.",
"G.z z z z z z z z z z z z z 7 j c.D.F.F.F.F.F.F.F.F.F.>.. . # 2.f.d.0.Q <.F.F.F.F.F.F.F.F.F.F.A.8.p i i i i i z i i z i i i G.G.",
"G.z z z z z z z z z z z z e > w.A.F.F.F.F.F.F.F.F.F.D.J . X 1.F.F.F.F.F.D.F.F.F.F.F.F.F.F.F.F.F.N.' i i i i i z i i i i i i G.G.",
"G.z z z z z z z z z z z l , R C.F.F.F.F.F.F.F.F.F.F.Z.$ X X ,.F.F.F.F.F.F.F.F.F.F.F.F.F.F.F.F.F.A.a.b i i i i i i i z i i i G.G.",
"G.z z z z z z z z z z z 8 4 g.S.F.F.F.F.F.F.F.F.F.F.D.L . X @ 1.Z.F.F.F.F.F.F.F.F.F.F.F.F.F.F.F.F.C.@.i i i i i z i i i i i G.G.",
"G.z z i z z z z l z z u :  .C.F.F.F.F.F.F.F.F.F.F.F.F.r.O X X X H ,.n.F.F.F.F.F.F.F.F.F.F.F.F.F.F.S.l.m i i i i i i i i i i G.G.",
"G.z z z z z z l z z i 1 4 h.D.F.F.F.F.F.F.F.F.F.F.F.F.D.2.# . X X . # ,.Z.F.F.F.F.F.F.F.F.F.F.F.F.F.C.-.i i i z i i i i i i G.G.",
"G.G.z z z z i z z z u &  .A.F.F.F.F.F.F.F.F.F.F.F.F.F.F.F.f.( # X X X X ! D.F.F.F.F.F.F.F.F.F.F.F.F.D.l.m i i i i i i z i i G.G.",
"G.G.z z i z z z z z 6 3 y.D.F.F.F.F.F.F.F.F.F.F.F.F.F.F.F.F.F.M.1.$ X X X 0.F.F.F.F.F.F.F.F.F.F.F.F.F.C.@.i i i i i i i i i G.G.",
"G.G.z i z z z i z u & U C.F.F.F.F.F.F.F.F.F.F.F.F.F.F.F.F.F.F.F.F.v.$ X   ! F.F.F.F.F.F.F.F.F.F.F.F.F.S.p.c i i i i i i i i G.G.",
"G.G.z i z z i z z 8 % 3.D.F.F.F.F.F.F.F.F.F.F.F.F.F.F.F.F.F.F.F.F.F.) X . P F.F.F.F.F.F.F.F.F.F.F.F.F.D.m.V i i i i z i i i G.G.",
"G.G.z i z l i z z , * y.D.F.F.F.F.F.F.F.F.F.F.F.F.F.F.n.B.F.F.F.F.Z.P X X ( F.F.F.F.F.F.F.F.F.F.F.F.F.F.C.{ i i i i i i i G.G.G.",
"G.G.G.z i z z z u & 4 h.F.F.F.F.F.F.F.F.F.F.F.F.F.F.F.! # ) 0.u.q.W X X O u.F.F.F.F.F.F.F.F.F.F.F.F.F.F.A.-.i i i i i i i G.G.G.",
"G.G.G.z z z z i t % f m.S.F.F.F.F.F.F.F.F.F.F.F.F.F.B.$   X X X X X X X ,.D.F.F.F.F.F.F.F.F.F.F.F.F.F.F.S.8.i i i i i i i G.G.G.",
"G.G.G.G.i z i z w % s m.F.F.F.F.F.F.F.F.F.F.F.F.F.F.D.2.K @ O X X + K q.D.F.F.F.F.F.F.F.F.F.F.F.F.F.F.F.A.7.i i i i i i G.G.G.G.",
"G.G.G.G.l z z i w & ; g.D.F.F.F.F.F.F.F.F.F.F.F.F.F.F.F.D.n.u.# X 2.D.F.F.F.F.F.F.F.F.F.F.F.F.F.F.F.F.F.C.$.y i y i y i G.G.G.G.",
"G.G.G.G.i z i z t & % w.S.F.F.F.F.F.F.F.F.F.F.F.F.F.F.F.F.F.Z.H . q.F.F.F.F.F.F.F.F.F.F.F.F.F.F.F.F.F.F.N._ y i y i i G.G.G.G.G.",
"G.G.G.G.G.i z i u = % ^ C.F.F.F.F.F.F.F.F.F.F.F.F.F.F.F.F.F.D.! J u.F.F.F.F.F.F.F.F.F.F.F.F.F.F.F.F.F.S.j.a y y i y i G.G.G.G.G.",
"G.G.G.G.G.G.z z i , % 4 g.D.F.F.F.F.F.F.F.F.F.F.F.F.F.F.F.F.F.D.D.F.F.F.F.F.F.F.F.F.F.F.F.F.F.F.F.F.F.C.-.y i y i y G.G.G.G.G.G.",
"G.G.G.G.G.G.i i i w % % E N.F.F.F.F.F.F.F.F.F.F.F.F.F.F.F.F.F.F.F.F.F.F.F.F.F.F.F.F.F.F.F.F.F.F.F.F.A.a.a y y i i y G.G.G.G.G.G.",
"G.G.G.G.G.G.G.i i i - % % 3.C.S.F.F.F.F.F.F.F.F.F.F.F.F.F.F.F.F.F.F.F.F.F.F.F.F.F.F.F.F.F.F.F.F.F.S.l.A y y y i y G.G.G.G.G.G.G.",
"G.G.G.G.G.G.G.G.i z t & % * / c.A.D.F.F.F.F.F.D.D.F.F.F.F.F.F.D.D.F.D.F.F.F.D.F.F.F.D.F.F.F.D.D.C.p.A i y y y y G.G.G.G.G.G.G.G.",
"G.G.G.G.G.G.G.G.i z i w - % % h 3.h.N.N.C.C.C.C.V.C.C.V.C.C.C.V.V.C.C.C.C.C.C.C.V.C.V.C.C.N.z.e.+.a y y y y y G.G.G.G.G.G.G.G.G.",
"G.G.G.G.G.G.G.G.G.i i z t 6 & % % ; h T Y U T T T T T Y Y T T Y T T T Y Y Y Y Y Y Y Y Y Y I d 9 y y y y y y y G.G.G.G.G.G.G.G.G.",
"G.G.G.G.G.G.G.G.G.G.i i i i y 8 < < - - - - - - < - - - - - - - - - - - = - - - - - - - 6 8 y y y y y y y y G.G.G.G.G.G.G.G.G.G.",
"G.G.G.G.G.G.G.G.G.G.G.i i i i i i i i i i i y i i i i i i i y y y y y y y y y y y y y y y y y y y y y y y G.G.G.G.G.G.G.G.G.G.G.",
"G.G.G.G.G.G.G.G.G.G.G.G.i i i i i i i i y i y i i y i i i i y i i i i y y y y y y y y y y y y y y y y G.G.G.G.G.G.G.G.G.G.G.G.G.",
"G.G.G.G.G.G.G.G.G.G.G.G.G.G.i i i i i i i i i y y i y y y y y i y y y y y y y y y y y y y y y y y y G.G.G.G.G.G.G.G.G.G.G.G.G.G.",
"G.G.G.G.G.G.G.G.G.G.G.G.G.G.G.i i i i i y y y i y i y y y y y y y y y y y y y y y y y y y y y y y G.G.G.G.G.G.G.G.G.G.G.G.G.G.G.",
"G.G.G.G.G.G.G.G.G.G.G.G.G.G.G.G.G.y y y y y y y y y y y y y y y y y y y y y y y y y i y y y y G.G.G.G.G.G.G.G.G.G.G.G.G.G.G.G.G.",
"G.G.G.G.G.G.G.G.G.G.G.G.G.G.G.G.G.G.G.y y y y y y y y y y y y y y y y y y y y y y y y y y G.G.G.G.G.G.G.G.G.G.G.G.G.G.G.G.G.G.G.",
"G.G.G.G.G.G.G.G.G.G.G.G.G.G.G.G.G.G.G.G.G.y y y y y y y y y y y y y y i y y y y y y y G.G.G.G.G.G.G.G.G.G.G.G.G.G.G.G.G.G.G.G.G.",
"G.G.G.G.G.G.G.G.G.G.G.G.G.G.G.G.G.G.G.G.G.G.G.G.y y y y y y y y y y y y y y y y G.G.G.G.G.G.G.G.G.G.G.G.G.G.G.G.G.G.G.G.G.G.G.G.",
"G.G.G.G.G.G.G.G.G.G.G.G.G.G.G.G.G.G.G.G.G.G.G.G.G.G.G.G.G.G.y y y y G.G.G.G.G.G.G.G.G.G.G.G.G.G.G.G.G.G.G.G.G.G.G.G.G.G.G.G.G.G."
};
