/* XPM */
static char *bitcoin32[] = {
/* columns rows colors chars-per-pixel */
"32 32 113 2 ",
"   c #F9651C",
".  c #F96B24",
"X  c #F9722F",
"o  c #FA7A3B",
"O  c #FA7F42",
"+  c #CE9E11",
"@  c #CEA40E",
"#  c #D3A501",
"$  c #DDA500",
"%  c #D2A119",
"&  c #E0AB00",
"*  c #EAAB01",
"=  c #F2AE01",
"-  c #E7B202",
";  c #ECB500",
":  c #ECB900",
">  c #F5B400",
",  c #FFB701",
"<  c #F2BD03",
"1  c #FFBC01",
"2  c #FEBF0D",
"3  c #E3B519",
"4  c #D9AE26",
"5  c #D1AC2A",
"6  c #DCB42F",
"7  c #D1A730",
"8  c #FABF28",
"9  c #F6C105",
"0  c #FFC501",
"q  c #FECA01",
"w  c #F6C008",
"e  c #FEC50C",
"r  c #FDC115",
"t  c #FACA13",
"y  c #FCC32E",
"u  c #FCC92F",
"i  c #FBD028",
"p  c #FBC938",
"a  c #FAD130",
"s  c #FA8145",
"d  c #FA8449",
"f  c #FB8E57",
"g  c #FB925E",
"h  c #D6B24A",
"j  c #DABA5D",
"k  c #E1BC41",
"l  c #FB9A6A",
"z  c #FBA377",
"x  c #FBA87D",
"c  c #DEC04F",
"v  c #E4C24F",
"b  c #FACE4F",
"n  c #FAD64D",
"m  c #FAD343",
"M  c #FACB52",
"N  c #FAD552",
"B  c #FAD059",
"V  c #DCC46E",
"C  c #DEC476",
"Z  c #DFC67C",
"A  c #E4C767",
"S  c #ECC96F",
"D  c #F9D56C",
"F  c #F9DB6E",
"G  c #E1C97C",
"H  c #E8CE7A",
"J  c #ECD174",
"K  c #F9D77D",
"L  c #FCAB82",
"P  c #FCB591",
"I  c #FCBA99",
"U  c #FCBFA0",
"Y  c #E3CD8E",
"T  c #F8DF81",
"R  c #F8DC8F",
"E  c #E7CF94",
"W  c #E5CF98",
"Q  c #E5D198",
"!  c #F8DE93",
"~  c #F9E082",
"^  c #F8E289",
"/  c #F8E396",
"(  c #F8E19A",
")  c #FDC3A5",
"_  c #FDC5A8",
"`  c #E7D8A4",
"'  c #E9D9A6",
"]  c #E9DAAA",
"[  c #F0DFAA",
"{  c #FDCDB4",
"}  c #EADCB3",
"|  c #ECDFBC",
" . c #FDD1BA",
".. c #F8E4A1",
"X. c #F8E4AC",
"o. c #F8E8AC",
"O. c #ECE1BD",
"+. c #F8E8BB",
"@. c #FEDBC9",
"#. c #FEE0D1",
"$. c #F8EED5",
"%. c #F3EDDA",
"&. c #FCECDA",
"*. c #F9F1D7",
"=. c #F9F2DF",
"-. c #F4F0E1",
";. c #FAF5E6",
":. c #FDF3EB",
">. c #FCF9EF",
",. c #FBF7F1",
"<. c #FCF9F5",
"1. c #FFFFFF",
"2. c None",
/* pixels */
"2.2.2.2.2.2.2.2.2.2.2.2.2.2.2.2.2.2.2.2.2.2.2.2.2.2.2.2.2.2.2.2.",
"2.2.2.2.2.2.2.2.2.2.2.2.2.q q q q q q 2.2.2.2.2.2.2.2.2.2.2.2.2.",
"2.2.2.2.2.2.2.2.2.2.q q q q q q q q q q q q 2.2.2.2.2.2.2.2.2.2.",
"2.2.2.2.2.2.2.2.q q q q q q q q q q q t q q q q 2.2.2.2.2.2.2.2.",
"2.2.2.2.2.2.q q q q t F ( o.T m a n / o.~ i q q q q 2.2.2.2.2.2.",
"2.2.2.2.2.q q q q : c <.1.1.1.>.;.<.1.1.1.^ q q q q q 2.2.2.2.2.",
"2.2.2.2.q q q q q - 5 %.1.1.1.1.1.1.1.1.>.N q q q q 0 0 2.2.2.2.",
"2.2.2.2.q 0 q q q 9 # V <.1.1.1.1.1.1.1.( e q q q q 0 0 2.2.2.2.",
"2.2.2.q q 0 0 0 q q : @ ' 1.1.1.1.1.1.*.u 1 0 0 1 9 0 1 1 2.2.2.",
"2.2.0 0 0 q q q q 0 q & 5 Q ' ` ' ' ' N 0 1 1 1 1 1 1 1 1 1 2.2.",
"2.2.q q 0 q q 0 0 q 0 9 v ` ' ' ] ] ] F e 1 1 1 1 1 1 1 1 1 2.2.",
"2.q q q q 0 q q 0 0 w J ;.1.1.1.1.1.1.<...2 1 1 1 1 1 1 1 1 2.2.",
"2.0 0 q 0 q 0 0 0 < H ,.1.1.1.1.<.1.1.1.<...r 1 1 1 1 1 1 1 1 2.",
"2.q 0 0 0 0 0 0 < A ,.1.1.1.1. .L 1.1.1.1.1.! 2 1 1 1 1 1 1 1 2.",
"2.0 0 0 0 0 0 9 k -.1.1.1.1.#.g X x #.1.1.1.,.D 1 1 1 1 1 1 1 2.",
"2.0 0 q 0 0 0 3 O.1.1.1.1.#.o s z f { 1.1.1.1.;.p 1 1 1 0 1 1 2.",
"2.0 0 0 0 0 : G 1.1.1.1.1.I   { 1.<.1.1.1.1.1.1.X.2 1 1 1 1 1 2.",
"2.0 0 0 0 1 6 %.1.1.1.1.1. .. O _ :.1.1.1.1.1.1.<.B 1 1 1 1 0 2.",
"2.0 0 0 0 - Y 1.1.1.1.1.1.1.) O . d @.1.1.1.1.1.1.+.r 1 1 1 1 2.",
"2.0 0 0 < 4 %.1.1.1.1.1.1.1.1.:.I . g <.1.1.1.1.1.,.b 1 1 1 1 2.",
"2.0 1 0 ; j <.1.1.1.1.1.1.,.:.1.:.d d <.1.1.1.1.1.1.R 1 1 1 1 2.",
"2.0 0 0 $ Z 1.1.1.1.1.1.1._ O l f . I 1.1.1.1.1.1.1.X.2 1 1 2.2.",
"2.2.1 0 $ C 1.1.1.1.1.1.1.&.P s o { 1.1.1.1.1.1.1.1.X.1 1 1 2.2.",
"2.2.0 1 & h ,.1.1.1.1.1.1.1.1.) L 1.1.1.1.1.1.1.1.1.K , , 1 2.2.",
"2.2.2.0 ; + } 1.1.1.1.1.1.1.1.<.,.1.1.1.1.1.1.1.1.$.y 1 , 2.2.2.",
"2.2.2.2.1 $ 7 | 1.1.1.1.1.1.1.1.1.1.1.1.1.1.1.<.$.M , , 2.2.2.2.",
"2.2.2.2.0 > $ % j Y W W E Q Q Q W W W W W W E S 8 , , 2.2.2.2.2.",
"2.2.2.2.2.1 , > * * * * * * * * * * * * * * = , , , , 2.2.2.2.2.",
"2.2.2.2.2.2.2.1 1 1 1 1 1 , 1 1 , 1 , , 1 , , , , 2.2.2.2.2.2.2.",
"2.2.2.2.2.2.2.2.1 1 , , , , , , , , , , , , , , 2.2.2.2.2.2.2.2.",
"2.2.2.2.2.2.2.2.2.2., , , , , , , , , , , , 2.2.2.2.2.2.2.2.2.2.",
"2.2.2.2.2.2.2.2.2.2.2.2.2., , , , , , 2.2.2.2.2.2.2.2.2.2.2.2.2."
};
