/* XPM */
static char *bitcoin16[] = {
/* columns rows colors chars-per-pixel */
"16 16 126 2 ",
"   c #E7AF0C",
".  c #E7B70A",
"X  c #EAB00F",
"o  c #FEB500",
"O  c #FFB500",
"+  c #FEB600",
"@  c #FEB700",
"#  c #FFB701",
"$  c #F8B800",
"%  c #FEB800",
"&  c #FFB800",
"*  c #FFBB00",
"=  c #FBBD00",
"-  c #FFBC00",
";  c #FFBC01",
":  c #FFBD01",
">  c #FFBF00",
",  c #FFBF01",
"<  c #EFBC16",
"1  c #FDBB15",
"2  c #FEBD17",
"3  c #E2B83A",
"4  c #E6BE3F",
"5  c #F5C000",
"6  c #FBC100",
"7  c #FCC000",
"8  c #FEC300",
"9  c #FFC300",
"0  c #FEC301",
"q  c #F9C500",
"w  c #FFC400",
"e  c #FFC500",
"r  c #FFC501",
"t  c #FEC600",
"y  c #FFC700",
"u  c #FFC601",
"i  c #FFC701",
"p  c #FFC702",
"a  c #FDC801",
"s  c #FFC801",
"d  c #FFC901",
"f  c #FDCA01",
"g  c #FFCA01",
"h  c #FFCC00",
"j  c #FDCA05",
"k  c #FDCB05",
"l  c #FECB04",
"z  c #FDCB06",
"x  c #F5C00F",
"c  c #FCCB0D",
"v  c #FDCC0D",
"b  c #FEC417",
"n  c #FEC21A",
"m  c #FDC426",
"M  c #F4C529",
"N  c #F5C82C",
"B  c #FDC939",
"V  c #FDCB3B",
"C  c #FB8F5A",
"Z  c #E9BD43",
"A  c #FB9664",
"S  c #FB9E6F",
"D  c #FBA478",
"F  c #FBA67C",
"G  c #F3C348",
"H  c #ECC255",
"J  c #ECC355",
"K  c #ECC256",
"L  c #FCCD51",
"P  c #FCD058",
"I  c #E1C563",
"U  c #EBCD67",
"Y  c #F4D669",
"T  c #FBE07C",
"R  c #FBE17F",
"E  c #FCBC9C",
"W  c #FDBE9E",
"Q  c #FBDB80",
"!  c #E7D494",
"~  c #E8D49B",
"^  c #FBE695",
"/  c #FDC7AC",
"(  c #FDCBB2",
")  c #FDCCB4",
"_  c #FBE9A5",
"`  c #F1E1AD",
"'  c #F0E1AE",
"]  c #F8E6AB",
"[  c #FBE6AF",
"{  c #F8EABA",
"}  c #FDD5C1",
"|  c #FDD9C6",
" . c #FEDCCC",
".. c #FCEDC2",
"X. c #FCEFC2",
"o. c #F3E9CA",
"O. c #F6EBC8",
"+. c #FCF1C6",
"@. c #F3ECD4",
"#. c #F3EDD5",
"$. c #F4EDD6",
"%. c #FEE4D8",
"&. c #FCF3D8",
"*. c #FCF4DC",
"=. c #FEEBE1",
"-. c #FEEDE4",
";. c #FFEEE6",
":. c #FEF1EA",
">. c #FAF7F0",
",. c #FFF6F2",
"<. c #FBF9F3",
"1. c #FBFAF6",
"2. c #FCF8F5",
"3. c #FDFAF7",
"4. c #FCFBF8",
"5. c #FFFAF8",
"6. c #FFFBF9",
"7. c #FFFBFA",
"8. c #FCFCF9",
"9. c #FEFCF9",
"0. c #FDFCFB",
"q. c #FDFDFC",
"w. c #FEFDFC",
"e. c #FEFEFE",
"r. c white",
"t. c None",
/* pixels */
"t.t.t.t.t.t.t.t.t.t.t.t.t.t.t.t.",
"t.t.t.t.h l v l g c k g t.t.t.t.",
"t.t.t.g q Y +._ ^ X.R k g t.t.t.",
"t.t.g g 5 I 4.r.r.r.T q p p t.t.",
"t.p g p p . ! @.@.] b , , , * t.",
"t.p p p p M ` @.$.{ V * , * , t.",
"p p p p M O.r.;.%.r.&.B , * * t.",
"p p 9 < ` r.:.F D =.r...n * , * ",
"9 p 6 U 8.r. .C | 5.r.r.T * * # ",
"9 9 < o.r.r.5.( A } r.r.*.m , ; ",
"t.6 4 <.r.r.;./ S ( r.r.w.P * t.",
"t.= 3 >.r.r.,.E W 5.r.r.5.L * t.",
"t.t.  ~ 4.0.0.4.2.0.r.5.[ 2 t.t.",
"t.t.$ X Z K K K K K K G 1 t.t.t.",
"t.t.t.t.* o o o o o o o t.t.t.t.",
"t.t.t.t.t.# * o * o # t.t.t.t.t."
};
